PathFileType	4	(X/Y/Z)	C:/Users/beibeiliu/ov580/test_trc/User3\sequence.24_training_dense_left.trc
DataRate	CameraRate	NumFrames	NumMarkers	Units	OrigDataRate	OrigDataStartFrame	OrigNumFrames
120	120	23	19	mm	120	69	275
Frame#	Time	ThumbCMC			ThumbMCP			ThumbIP			ThumbTip			IndexMCP			IndexPIP			IndexTip			MiddleMCP			MiddlePIP			MiddleTip			RingMCP			RingPIP			RingTip			PinkyMCP			PinkyPIP			PinkyTip			BackHand1			BackHand2			BackHand3	
		X0	Y0	Z0	X1	Y1	Z1	X2	Y2	Z2	X3	Y3	Z3	X4	Y4	Z4	X5	Y5	Z5	X6	Y6	Z6	X7	Y7	Z7	X8	Y8	Z8	X9	Y9	Z9	X10	Y10	Z10	X11	Y11	Z11	X12	Y12	Z12	X13	Y13	Z13	X14	Y14	Z14	X15	Y15	Z15	X16	Y16	Z16	X17	Y17	Z17	X18	Y18	Z18	
68	0.566667	-179.733	32.0863	17.7121	-147.803	40.3115	15.3068	-122.621	46.0323	7.7869	-99.0217	53.1083	3.09936	-132.957	18.1283	-41.1967	-101.969	21.7983	-39.5534	-79.9328	21.7234	-29.5905	-126.053	-4.14057	-37.3496	-101.17	0.68062	-17.5543	-114.519	7.50813	18.3678	-129.015	-19.0972	-24.2962	-109.976	-13.1186	1.65334	-130.213	-6.93307	25.6751	-130.309	-38.6673	-9.84815	-119.128	-22.1324	11.2536	-140.924	-9.29845	25.2394	-184.389	-26.0208	-18.5674	-207.018	-30.2358	4.00007	-196.877	4.45009	-9.34564	
69	0.575	-185.327	31.7574	17.5291	-152.3	44.7241	12.6935	-126.812	56.082	6.30154	-106.953	63.8368	4.33585	-135.135	27.9194	-40.3708	-105.055	31.9419	-36.0462	-82.9131	35.1688	-25.0836	-123.224	3.78055	-34.6348	-101.344	11.2219	-15.3674	-118.155	16.9491	21.9425	-125.78	-14.5404	-20.255	-108.426	-5.73044	2.70062	-131.08	5.00727	25.6066	-126.461	-30.0712	-7.80882	-117.227	-12.4856	12.2685	-138.293	-3.39362	29.1745	-185.292	-26.2928	-14.9713	-206.635	-29.9204	8.74018	-199.17	5.51972	-8.68581	
70	0.583333	-190.369	37.8271	15.5317	-160.073	47.6014	11.9946	-134.026	63.9253	5.36373	-113.519	72.596	0.548918	-138.447	33.3734	-40.8943	-114.36	43.1046	-38.4391	-85.8345	47.7044	-22.9881	-128.163	13.7741	-34.5609	-104.258	22.465	-14.3683	-121.542	30.0264	20.1398	-125.605	-7.35107	-19.6028	-111.276	8.97781	6.47073	-138.552	13.1247	27.0847	-123.599	-21.916	-5.40136	-115.785	-7.29643	15.5768	-143.193	6.171	27.4846	-180.65	-24.718	-15.1536	-204.715	-24.1185	7.96985	-201.101	6.63221	-8.8976	
71	0.591667	-194.33	39.5853	11.3431	-169.58	55.9316	12.3247	-143.228	68.5851	2.93568	-123.067	82.0632	-0.894024	-141.585	33.6264	-39.6517	-115.902	49.07	-36.4203	-93.0309	58.9345	-22.3944	-131.213	18.6534	-35.4389	-110.031	35.1537	-14.7769	-130.166	36.2726	21.9769	-125.737	4.05058	-18.6746	-112.928	16.0473	3.17078	-142.824	19.7098	26.7571	-128.248	-16.0761	-5.06441	-118.864	4.56524	14.4119	-146.123	13.4514	28.664	-178.988	-21.2951	-14.8265	-202.928	-26.0264	7.20217	-203.67	9.47559	-11.7021	
72	0.6	-204.614	40.3787	13.1747	-177.952	58.883	8.95634	-155.701	78.3894	-0.140186	-134.765	86.8074	-6.13362	-148.167	38.4883	-41.9943	-124.414	53.5602	-39.5505	-105.467	68.867	-27.1002	-132.416	23.6894	-34.7196	-115.34	40.3431	-11.6099	-135.612	40.9313	19.4761	-128.721	8.94696	-18.5678	-118.967	27.0264	5.36115	-148.544	28.2236	24.3054	-130.712	-5.84802	-6.89859	-121.02	12.3097	13.7254	-148.267	16.4743	31.003	-181.379	-22.2193	-12.5204	-205.64	-26.0649	9.7559	-207.012	5.23334	-9.69552	
73	0.608333	-211.146	37.9972	11.4906	-184.386	58.0853	3.1196	-162.873	80.0034	-6.34114	-148.497	94.4462	-8.6971	-158.463	41.9548	-44.0944	-134.533	62.2751	-42.9302	-112.819	75.3514	-27.2465	-141.974	29.5048	-36.542	-123.465	46.9375	-17.0607	-145.892	44.9492	19.0492	-136.126	14.4773	-21.5497	-127.109	34.5	3.82487	-155.067	30.2609	22.679	-130.424	1.73698	-7.56831	-125.679	18.6944	14.122	-155.6	21.0799	24.2172	-182.863	-16.8398	-14.3968	-200.507	-28.246	8.77161	-209.041	4.24391	-11.3712	
74	0.616667	-215.136	34.8048	8.41593	-194.315	61.191	0.456005	-172.723	81.1838	-11.5229	-161.111	97.4318	-15.3531	-165.015	41.6246	-46.8927	-142.503	61.3738	-46.3984	-125.816	81.4179	-33.4436	-146.49	32.2656	-39.3996	-132.19	50.9136	-18.5479	-153.491	51.7438	13.9103	-143.008	17.0579	-24.4529	-131.8	36.861	2.53952	-156.16	33.4518	19.2467	-134.308	2.37687	-8.39465	-131.152	22.681	7.26838	-159.213	22.6363	21.0954	-184.693	-20.1969	-9.77566	-207.498	-26.8211	8.9845	-215.099	2.78788	-11.473	
75	0.625	-222.102	35.3374	4.77564	-199.734	57.8731	-3.75426	-185.109	79.4301	-15.9733	-170.553	95.3393	-22.3179	-171.649	36.6392	-51.8025	-149.472	60.5136	-51.194	-136.661	81.9582	-40.6178	-155.221	29.8327	-43.6255	-139.433	51.1505	-23.5585	-162.25	48.2254	11.2182	-145.247	16.241	-25.9413	-139.091	39.4349	-5.85599	-166.989	30.8252	16.668	-142.524	2.98014	-12.3231	-135.917	23.8468	5.54706	-165.436	22.8877	17.4485	-188.667	-18.1955	-16.2392	-210.53	-28.4549	11.1833	-220.371	-3.57997	-10.2735	
76	0.633333	-225.983	33.7544	-0.172672	-207.016	56.2491	-8.74742	-188.097	73.3448	-23.9017	-177.706	92.4402	-32.3641	-184.552	35.1939	-58.0365	-162.032	58.6493	-61.3484	-144.257	75.8338	-49.1454	-160.828	27.5315	-49.3483	-145.773	48.9982	-30.0218	-166.719	49.3798	2.66693	-154.5	15.1868	-33.7029	-143.831	35.7419	-9.10855	-168.143	29.7	10.2751	-144.378	2.01686	-17.2434	-141.515	23.5781	-0.933938	-172.374	19.4785	14.6922	-194.851	-22.4053	-13.72	-208.747	-32.9867	8.35638	-222.917	-6.28531	-15.3858	
77	0.641667	-228.812	27.3096	0.0357453	-208.29	49.5213	-14.7921	-192.778	70.57	-30.4286	-180.716	84.052	-40.1273	-188.127	26.7358	-62.3947	-166.658	50.5042	-68.2756	-147.565	70.5033	-57.1604	-169.35	20.7041	-55.6315	-153.098	44.1105	-40.6413	-169.094	42.3008	-4.53784	-157.96	9.82273	-38.0334	-149.023	30.1273	-15.7126	-175.125	24.9438	4.59477	-150.735	-1.15286	-24.6725	-148.134	21.0403	-7.5615	-172.501	17.0691	5.77133	-199.302	-29.1413	-18.3351	-214.376	-34.241	9.62868	-227.89	-10.1888	-16.0418	
78	0.65	-233.34	28.5101	-2.13443	-209.645	45.8262	-20.7216	-194.13	62.4876	-36.2765	-179.306	73.4985	-49.2045	-192.939	21.809	-67.1239	-174.303	41.5541	-75.2608	-154.128	60.1331	-67.2642	-174.347	8.16375	-58.5867	-155.927	37.1191	-44.5473	-173.157	39.519	-11.7227	-165.842	-0.312233	-43.676	-150.573	22.3029	-23.9977	-173.487	22.1347	-2.30679	-158.951	-11.5957	-27.575	-152.393	14.602	-13.3136	-175.888	11.8809	3.0673	-207.504	-29.7503	-16.9516	-219.509	-34.9318	7.95528	-234.904	-8.9581	-15.1478	
79	0.658333	-231.611	25.0579	-4.79375	-210.731	42.4651	-22.9848	-194.643	59.0861	-42.814	-179.813	67.7959	-56.0677	-198.173	12.4954	-69.1845	-172.795	32.1501	-79.6699	-156.169	49.7224	-76.8988	-178.599	1.06319	-63.7089	-159.629	26.0788	-56.3018	-170.751	30.5013	-19.1438	-167.867	-5.30038	-50.0037	-153.641	13.2341	-31.2301	-176.12	17.2802	-8.52981	-162.408	-18.814	-32.6257	-151.606	3.92125	-19.9325	-175.728	6.21006	-1.88564	-211.585	-35.3913	-16.9912	-226.281	-37.8171	6.02013	-239.389	-12.8887	-16.4561	
80	0.666667	-230.071	21.7992	-6.27114	-210.741	40.4619	-23.8355	-191.784	48.4165	-46.8187	-176.791	57.3214	-59.028	-200.075	7.08577	-75.5017	-175.638	22.0188	-85.4465	-155.656	40.9693	-83.6986	-183.603	-7.02073	-67.73	-159.372	15.3517	-59.3665	-171.795	23.7641	-25.0047	-176.015	-15.0449	-52.4435	-157.657	5.40094	-40.2503	-180.92	10.485	-13.5675	-163.416	-27.8701	-36.104	-157.055	-5.13808	-27.2944	-176.964	-0.976149	-4.36081	-215.95	-42.0644	-23.3551	-230.981	-37.2479	6.80914	-242.776	-13.4155	-15.5669	
81	0.675	-229.361	24.361	-7.79363	-205.739	35.5507	-28.4693	-188.383	44.288	-50.6363	-172.855	50.623	-62.9511	-205.218	2.06016	-76.0994	-180.843	10.9011	-89.0063	-153.956	24.8427	-89.1793	-189.018	-11.3249	-71.8669	-162.807	8.34372	-64.9756	-169.889	12.4922	-26.2745	-179.029	-24.541	-53.9338	-157.939	-7.05204	-41.3448	-182.623	2.75648	-14.9355	-171.646	-32.8319	-40.9124	-159.882	-13.2041	-29.4302	-179.96	-9.77002	-4.28511	-222.092	-44.5524	-21.7561	-231.81	-42.3421	6.79308	-243.392	-13.7278	-16.5778	
82	0.683333	-225.221	21.5378	-9.45867	-202.196	29.0813	-27.1972	-181.991	35.7254	-53.4186	-167.74	38.4614	-68.7426	-207.647	-2.11241	-79.3199	-183.704	5.18645	-92.3487	-156.319	10.7601	-94.4523	-194.664	-20.7183	-71.7044	-162.872	-2.96466	-64.253	-171.359	3.45717	-27.3852	-182.823	-31.8549	-56.4975	-160.742	-17.6648	-41.7864	-181.515	-4.08634	-17.6399	-179.981	-44.9291	-40.124	-161.521	-24.7633	-29.6228	-180.577	-17.5426	-7.6125	-229.158	-43.6104	-25.6923	-239.031	-40.0557	6.1866	-246.443	-14.3998	-14.4272	
83	0.691667	-218.946	18.59	-5.82556	-194.784	26.3836	-29.788	-177.615	26.7397	-53.6127	-161.503	29.4927	-71.308	-209.949	-5.59745	-78.3021	-184.19	-4.20365	-93.6876	-158.172	-0.510614	-99.0279	-194.847	-28.3067	-74.0527	-165.128	-17.6788	-65.4625	-170.674	-7.50432	-30.3724	-190.052	-39.1722	-57.1055	-164.282	-27.8013	-43.5852	-182.786	-15.4777	-15.471	-185.231	-53.7504	-40.9406	-165.878	-37.4986	-29.2637	-186.475	-23.3553	-9.8272	-233.413	-46.1418	-23.3217	-240.477	-41.4846	8.8099	-246.007	-10.8898	-15.0513	
84	0.7	-211.38	17.6633	-8.89001	-187.285	19.7456	-31.6852	-169.848	23.1887	-55.5684	-155.719	19.4757	-71.2042	-211.807	-6.73987	-78.1186	-183.681	-11.4866	-95.514	-161.099	-9.9225	-102.248	-199.527	-27.5678	-74.8331	-168.878	-27.4028	-68.3323	-171.983	-14.2321	-29.5876	-195.48	-45.2521	-58.7201	-169.058	-34.7281	-43.0276	-185.564	-21.32	-17.3389	-194.011	-56.3989	-46.1753	-173.027	-46.6483	-30.9248	-189.46	-30.2878	-11.5945	-242.062	-43.9392	-23.6987	-244.505	-35.8323	10.9956	-244.38	-4.98854	-13.2912	
85	0.708333	-198.996	14.2755	-3.58729	-178.582	9.51541	-29.3935	-162.151	8.49455	-52.3071	-147.853	6.92392	-71.6158	-208.195	-6.0084	-78.0707	-188.689	-12.498	-94.4034	-162.513	-20.7356	-104.144	-204.899	-27.1087	-74.7104	-170.737	-33.004	-67.6141	-171.998	-25.2867	-31.7659	-203.186	-48.3398	-60.8902	-174.578	-44.596	-47.7561	-188.203	-31.9093	-17.4764	-202.763	-62.9995	-49.3153	-181.721	-55.2626	-35.9277	-195.848	-38.9024	-9.52305	-245.267	-35.5728	-21.1347	-246.503	-28.8573	7.39805	-236.984	1.98796	-7.62522	
86	0.716667	-189.498	6.69	0.645689	-167.832	1.79329	-25.955	-150.438	0.47833	-47.6993	-138.808	-5.72384	-71.6511	-203.905	-2.85316	-74.3244	-182.914	-10.3188	-96.8146	-160.476	-26.6765	-106.703	-207.196	-27.3404	-72.8847	-176.326	-39.8434	-71.4575	-175.977	-36.1371	-28.525	-207.821	-43.579	-62.0059	-181.436	-53.5891	-46.8421	-187.875	-40.6101	-20.1751	-213.99	-57.2851	-51.6075	-189.025	-57.2108	-38.8359	-198.071	-46.8075	-12.7343	-244.546	-26.457	-19.1233	-245.835	-20.8438	7.74674	-228.443	7.57812	-6.01424	
87	0.725	-178.48	0.341659	4.42216	-157.797	-6.56484	-22.0613	-146.521	-12.3364	-46.4774	-131.238	-16.6049	-65.3456	-195.118	-0.221831	-73.5953	-179.816	-11.7456	-94.0211	-159.921	-30.3835	-106.121	-200.682	-21.9416	-73.9696	-174.87	-42.6464	-71.3061	-174.127	-42.6707	-32.881	-211.448	-42.2625	-62.0288	-185.85	-56.6031	-51.1955	-189.704	-42.5256	-19.8292	-219.329	-52.7433	-51.7425	-195.431	-63.5445	-38.6233	-201.441	-50.1654	-13.9396	-242.708	-16.8661	-18.5638	-242.119	-16.7307	14.4451	-218.428	8.85367	-2.02086	
88	0.733333	-171.584	-5.9296	5.6016	-154.189	-14.9969	-18.0965	-136.571	-18.9745	-45.8338	-130.321	-28.2211	-66.3342	-187.722	0.153995	-67.5855	-170.476	-14.1975	-93.4304	-160.157	-33.5483	-104.358	-198.264	-23.8005	-73.2247	-176.975	-48.496	-69.0024	-173.479	-48.6543	-32.725	-212.091	-38.6009	-59.8247	-189.784	-58.043	-52.7052	-191.162	-47.9439	-20.5369	-220.783	-48.1173	-52.4115	-200.403	-63.0904	-42.683	-203.656	-53.91	-14.2346	-235.362	-9.11175	-15.3364	-238.258	-12.0614	14.1968	-207.38	9.06839	-2.73948	
89	0.741667	-166.776	-12.3669	8.22651	-149.79	-21.5163	-15.7468	-136.038	-28.2849	-42.2607	-126.151	-36.1579	-58.7697	-178.114	-2.05627	-65.7049	-164.265	-17.8566	-89.8117	-150.706	-38.2128	-103.426	-192.693	-22.2582	-71.5668	-173.429	-49.3329	-68.6912	-175.146	-53.5897	-30.6972	-205.89	-35.0369	-60.6745	-191.156	-60.8158	-51.3964	-188.903	-48.3073	-20.5601	-223.286	-45.6171	-50.9704	-201.854	-63.0102	-41.5877	-202.1	-48.2665	-14.5783	-230.845	-7.1788	-14.9067	-233.917	-8.90274	16.0461	-199.249	9.34459	0.674503	
90	0.75	-159.466	-15.4253	13.9732	-146.207	-27.6146	-12.5223	-127.73	-35.7395	-39.419	-122.851	-43.9678	-58.647	-171.694	-4.37543	-62.5132	-159.155	-19.2548	-84.745	-148.095	-45.1832	-99.219	-187.37	-20.5138	-65.7159	-173.021	-50.9629	-68.882	-174.215	-55.6402	-27.1756	-202.049	-32.3956	-57.8201	-188.822	-61.662	-49.5089	-190.279	-47.2498	-15.3476	-218.106	-46.7437	-51.8699	-200.178	-62.3096	-42.1473	-199.667	-50.4075	-15.0714	-219.524	-3.33961	-13.5204	-227.815	-7.28188	14.4242	-190.74	9.79592	4.6003	
